# xmcd
#
# Track frame offsets:
#	150
#	6058
#	26479
#	51657
#	76831
#	103457
#	120670
#	145382
#	164384
#	176082
#	199421
#	217437
#	240867
#	261177
#	280710
#	303615
#
# Disc length: 4225 seconds
#
# Revision: 1
# Processed by: cddbd v1.5.1PL2 Copyright (c) Steve Scherf et al.
# Submitted via: EasyCDDAExtractor 9.0.0.1
#
DISCID=f0107f10
DTITLE=Ozzy Osbourne - Civic Center Providencd RI 06-04-82 Remaster
DYEAR=1982
DGENRE=Hard Rock
TTITLE0=Intro
TTITLE1=Over The Mountain
TTITLE2=Mr Crowley
TTITLE3=Crazy Train
TTITLE4=Revelation (Mother Earth)
TTITLE5=Steal Away (The Night)
TTITLE6=Suicide Solution
TTITLE7=Guitar Solo
TTITLE8=Drum Solo
TTITLE9=Goodbye To Romance
TTITLE10=I Don't Know
TTITLE11=Believer
TTITLE12=Flying High Again
TTITLE13=Iron Man
TTITLE14=Children Of The Grave
TTITLE15=Paranoid
EXTD=
EXTT0=
EXTT1=
EXTT2=
EXTT3=
EXTT4=
EXTT5=
EXTT6=
EXTT7=
EXTT8=
EXTT9=
EXTT10=
EXTT11=
EXTT12=
EXTT13=
EXTT14=
EXTT15=
PLAYORDER=
